# xmcd CD database file
#
# Track frame offsets:
#	150
#	19632
#	39382
#	61810
#	80537
#	92212
#	107572
#	125842
#	143547
#	167080
#	186495
#
# Disc length: 2686 seconds
#
# Revision: 0
# Processed by: cddbd v1.4PL0 Copyright (c) Steve Scherf et al.
# Submitted via: CDex 1.50beta10
#
DISCID=8e0a7c0b
DTITLE=Li'l Ronnie and The Grand Dukes - Young and Evil
DYEAR=2001
DGENRE=Blues
TTITLE0=Leavin' Here Tonight
TTITLE1=Mellow Chick
TTITLE2=Young and Evil
TTITLE3=Buck Naked
TTITLE4=Rockin'
TTITLE5=Think Big
TTITLE6=Early One Monday Morning
TTITLE7=Let Me Down Easy
TTITLE8=I've Been Your Good Thing
TTITLE9=Doggin' Round
TTITLE10=Chicken Shack Boogie
EXTD=YEAR: 2001
EXTT0=
EXTT1=
EXTT2=
EXTT3=
EXTT4=
EXTT5=
EXTT6=
EXTT7=
EXTT8=
EXTT9=
EXTT10=
PLAYORDER=
